<?xml version="1.0" standalone="no"?>
<!DOCTYPE svg PUBLIC "-//W3C//DTD SVG 20010904//EN"
 "http://www.w3.org/TR/2001/REC-SVG-20010904/DTD/svg10.dtd">
<svg version="1.0" xmlns="http://www.w3.org/2000/svg"
 width="1160.000000pt" height="1160.000000pt" viewBox="0 0 1160.000000 1160.000000"
 preserveAspectRatio="xMidYMid meet">
<metadata>
Created by potrace 1.14, written by Peter Selinger 2001-2017
</metadata>
<g transform="translate(0.000000,1160.000000) scale(0.100000,-0.100000)"
fill="#000000" stroke="none">
<path d="M2401 9678 c-5 -13 -23 -54 -41 -93 -38 -82 -53 -119 -48 -121 2 -1
-6 -11 -16 -23 -11 -12 -16 -21 -12 -21 3 0 -5 -21 -18 -47 -13 -27 -32 -66
-41 -88 -9 -22 -23 -53 -31 -68 -8 -16 -14 -35 -14 -43 0 -8 -4 -14 -10 -14
-5 0 -10 -5 -10 -11 0 -12 -42 -109 -103 -239 -21 -47 -40 -89 -42 -95 -3 -13
-49 -115 -80 -177 -13 -27 -22 -48 -18 -48 3 0 1 -6 -5 -12 -5 -7 -26 -51 -47
-98 -20 -47 -47 -105 -58 -130 -11 -25 -21 -47 -22 -50 -4 -11 -24 -58 -49
-112 -14 -31 -26 -62 -26 -67 0 -6 -4 -11 -10 -11 -5 0 -10 -7 -10 -15 0 -9
-13 -42 -30 -75 -16 -33 -30 -65 -30 -73 0 -7 -5 -18 -12 -25 -6 -6 -13 -17
-14 -24 -3 -14 -186 -426 -235 -528 -17 -35 -32 -69 -33 -75 -1 -5 -13 -35
-28 -65 -24 -51 -36 -78 -90 -200 -11 -25 -30 -67 -43 -95 -28 -64 -55 -123
-91 -205 -15 -36 -31 -67 -34 -70 -3 -3 -6 -11 -8 -19 -2 -8 -16 -41 -31 -75
-30 -63 -63 -137 -66 -146 -1 -3 -14 -32 -29 -65 -15 -33 -35 -78 -44 -100 -8
-22 -20 -43 -24 -46 -5 -3 -10 -16 -11 -27 -1 -12 -5 -22 -9 -22 -4 0 -8 -7
-8 -15 0 -8 -9 -30 -20 -50 -11 -19 -20 -37 -20 -40 0 -4 -12 -31 -68 -155 -9
-19 -16 -37 -17 -40 -1 -3 -10 -25 -22 -50 -34 -73 -72 -160 -73 -168 -1 -4
-7 -16 -14 -27 -7 -11 -20 -38 -28 -60 -9 -22 -33 -76 -53 -120 -80 -175 -99
-219 -93 -221 2 0 -4 -9 -12 -18 -8 -10 -15 -23 -16 -30 -1 -6 -18 -46 -38
-89 -47 -100 -60 -130 -58 -139 1 -5 -3 -8 -9 -8 -5 0 -8 -4 -5 -9 3 -5 -1
-14 -9 -21 -8 -7 -15 -19 -15 -27 0 -8 -8 -28 -17 -46 -9 -18 -18 -34 -18 -37
-1 -3 -7 -18 -13 -33 -7 -16 -12 -33 -12 -38 0 -5 -4 -9 -10 -9 -5 0 -10 -7
-10 -15 0 -9 -10 -35 -22 -58 -12 -23 -23 -46 -24 -52 -1 -5 -23 -54 -48 -108
-25 -54 -46 -104 -46 -111 0 -8 -7 -19 -15 -26 -11 -9 -12 -17 -4 -31 5 -10
14 -19 20 -19 6 0 38 -13 72 -29 34 -16 85 -39 112 -51 28 -12 73 -33 100 -45
28 -13 83 -37 124 -55 40 -17 106 -47 147 -66 41 -19 76 -34 78 -34 3 0 44
-18 93 -41 96 -45 128 -59 188 -85 22 -9 66 -29 98 -45 31 -15 57 -25 57 -22
0 3 7 -1 16 -8 9 -7 26 -15 37 -16 12 -2 24 -8 25 -13 2 -6 10 -10 18 -10 7 0
29 -9 48 -19 19 -11 36 -18 39 -15 2 2 10 -2 17 -11 7 -8 19 -15 26 -15 8 0
22 -4 32 -9 31 -18 152 -71 165 -74 6 -1 14 -4 17 -7 3 -3 136 -63 295 -134
293 -130 415 -185 470 -211 17 -8 89 -40 160 -71 119 -52 189 -83 300 -134 22
-10 128 -57 235 -105 107 -48 218 -97 245 -110 83 -37 132 -59 320 -143 289
-128 318 -142 350 -159 17 -10 32 -17 35 -16 3 1 24 -7 48 -18 23 -10 63 -29
90 -40 26 -12 71 -32 100 -45 29 -13 57 -24 62 -24 6 0 10 -5 10 -10 0 -6 3
-9 8 -8 7 1 26 -6 107 -43 28 -12 52 -23 55 -24 9 -3 55 -23 124 -55 39 -17
84 -37 100 -45 17 -7 58 -26 91 -41 33 -15 62 -28 65 -29 3 0 28 -11 55 -24
62 -28 74 -33 260 -116 83 -37 178 -80 213 -96 l62 -29 3100 0 3100 0 0 3238
0 3239 -3107 0 -3108 0 -72 36 c-40 19 -73 34 -73 31 0 -2 -15 5 -32 16 -18
11 -41 20 -50 20 -10 0 -18 5 -18 10 0 6 -6 10 -13 10 -7 0 -31 9 -53 19 -21
11 -102 47 -179 81 -77 34 -146 66 -152 72 -7 6 -13 8 -13 5 0 -3 -46 15 -102
42 -57 26 -124 56 -150 66 -27 10 -48 22 -48 27 0 5 -4 7 -9 3 -5 -3 -12 -1
-15 4 -3 5 -17 12 -30 15 -13 3 -71 28 -128 54 -57 27 -119 54 -138 62 -19 8
-50 22 -68 32 -18 10 -39 18 -47 18 -8 0 -15 5 -15 12 0 6 -3 8 -6 5 -4 -3
-16 -1 -28 5 -11 7 -23 13 -26 13 -3 1 -25 11 -50 22 -25 11 -86 39 -136 61
-50 22 -125 56 -166 76 -42 20 -78 36 -81 36 -3 0 -40 16 -84 36 -43 20 -96
44 -118 54 -22 9 -62 28 -90 40 -27 12 -68 31 -90 40 -22 10 -65 29 -95 43
-82 37 -135 61 -235 105 -145 64 -187 82 -245 109 -120 56 -119 56 -129 31z"/>
</g>
</svg>
